<svg xmlns="http://www.w3.org/2000/svg" fill="none" viewBox="-5 -45 231 231"><defs><clipPath id="a"><path d="M0-182h222v30H0z" transform="scale(1 -1)"/></clipPath></defs><rect width="221" height="221" y="-40" fill="#fff" rx="110.5"/><rect width="221" height="221" x=".1" y="-39.7" rx="110.5" fill="#dbf8e1" clip-path="url(#a)"/><path fill="#fff" d="M160 26c4 28 10 88 23 125h-73l-9-95c-67-6-62-75 0-78 40-1 55 20 59 48Z"/><path fill="#B1DCA7" d="M166 26c4 28 10 88 23 125h-73c0-10-7-71-10-95-67-6-62-75 0-78 40-1 56 20 60 48Z"/><circle cx="98" cy="-2.4" r="3.4" fill="#000"/><circle cx="74.8" cy="-2.4" r="3.4" fill="#000"/><path fill="#fff" d="m41 151-4-79h52l-4 79H41Z"/><path fill="#7FD0F2" d="m80 52 7 1-12 92-7-1 12-92Z"/><path fill="#FFED63" stroke="#FFCB7D" stroke-width="3" d="m40 80 15-28c-18-9-33 18-15 28Z"/><path stroke="#B8EAFF" stroke-linecap="round" stroke-width="3" d="M71 71H36l1 20m38-20h13l-4 79H40l-3-52"/><path fill="#FFF851" fill-opacity=".9" d="M40 94h44l-4 53H43l-3-53Z"/><circle cx="72" cy="121.5" r="2.1" fill="#fff"/><circle cx="52.9" cy="131" r="2.1" fill="#fff"/><circle cx="70.7" cy="139.2" r="2.1" fill="#fff"/><circle cx="46.7" cy="120.8" r="1.4" fill="#fff"/><path fill="#fff" stroke="#BCEBFF" stroke-width="3" d="m60 99 5-8 3-1 11 4c2 1 3 3 2 4l-4 9c-1 1-3 2-4 1l-11-5c-2-1-2-3-2-4Z"/><path fill="#fff" stroke="#BCEBFF" stroke-width="3" d="m60 104 2-5-2-3-12-4-3 1-1 1v8c0 1 1 2 3 2l10 1 3-1Z"/><path fill="#fff" stroke="#BCEBFF" stroke-width="3" d="m67 99-3-1h-5c-2 0-3 1-3 3v5l3 2h5l2-2 2-4-1-3Z"/><path fill="#65D488" d="M44 99c3-16 12-16 18-15-3 7-3 14-18 15Z"/><path fill="#65D488" d="M45 99c-7-2-6-7-5-11 2 2 6 2 5 11Z"/><path stroke="#72B961" stroke-linecap="round" stroke-linejoin="round" stroke-width="3" d="M161 26c4 28 10 88 23 125h-73c0-10-7-71-10-95-10 0-19-3-28-8m87-29c-6-24-22-42-59-41-48 2-62 46-32 68"/><path stroke="#72B961" stroke-linecap="round" stroke-width="3" d="M100 56h16"/><path stroke="#60ACCC" stroke-linecap="round" stroke-width="3" d="M34 151h152"/><path stroke="#65D488" stroke-linecap="round" stroke-width="2" d="M45 98c-2 2-4 7-3 10"/><rect width="221" height="221" y="-40" rx="110.5" stroke-width="5px" stroke="#ffd80c"/></svg>