<svg xmlns="http://www.w3.org/2000/svg" viewBox="0 0 48 48"><defs><radialGradient href="#a" id="b" cx="23" cy="33.9" r="18.3" gradientTransform="matrix(1 0 0 .28 0 24.3)" gradientUnits="userSpaceOnUse"/><linearGradient id="a"><stop offset="0"/><stop offset="1" stop-opacity="0"/></linearGradient></defs><path fill="url(#b)" d="M41.3 34a18.3 5.2 0 1 1-36.5 0 18.3 5.2 0 1 1 36.5 0z" transform="matrix(1 0 0 1.53 .1 -20)"/><path fill="#605947" stroke="#2e3436" stroke-linejoin="round" d="M10.4 12.5s2.8 5.9 9.6 5.7c14-.3 16.5-7.7 16.9-8.7.3-1.1.9-1 1 0C42.5 51.3 6 33.4 4.7 26.3 12 24 10.2 20 10.2 20l.2-7.6v.1z"/><path d="M15.7 30c6.8 1.4 10.2.2 12.2-1.4-.5-.7-1.4-1.4-1.4-1.4s2.3.6 3.2 1.7c.8 1 .3 1.7 0 3-.4-1.1-1.3-1.6-1.4-2-1.9 2.5-6.4 2.4-12.6.2z"/><ellipse cx="13.9" cy="21.4" fill="#efefee" stroke="#888a85" rx="4.1" ry="4.2"/><ellipse cx="14.4" cy="21.8" fill="#2e3436" stroke="#000" rx="2" ry="2.1"/><circle cx="14" cy="21.2" r="1.4" fill="#fff"/><ellipse cx="22.1" cy="21.7" fill="#efefee" stroke="#888a85" rx="4.8" ry="4.9"/><ellipse cx="23.1" cy="22.4" fill="#2e3436" stroke="#000" rx="2.3" ry="2.4"/><path fill="#ea8113" stroke="#673907" stroke-width=".4" d="m36.4 36 .8-1.7a37 37 0 0 0-9.5-4.4c-1.1-.5-1.5.4-.8 1 0 0 5.4 4 9.4 5.2z"/><path fill="#bdbdbd" stroke="#888a85" stroke-width=".4" d="m40.8 37.8.6-1-3.8-2.5-.4-.1v-.4c-.6.4-1.4 1.6-1.2 2.4l.4-.1.2.2 4.3 1.5z"/><path d="M46.4 42.6c-1.1-4-1.6-7.2-4.7-7-2.4.2-2.7 3.8 0 4.9l4.6 2z"/><path fill="#fff" d="M44.8 40s-.3-1.3-1.2-2c-.3-.4.1-.7.3-.4.7.8 1 2.5 1 2.5z" opacity=".4"/><path d="M23 31.7c1.5.2 2.9-.2 3.4-.4.1-.6.6-1.7 2-1.7l-.5-1s-2 1.4-4 1.8l-.9 1.3z"/><circle cx="22.2" cy="21.5" r="1.6" fill="#fff"/><ellipse cx="3.1" cy="15.6" fill="#4c5659" stroke="#000" rx="4.4" ry="6.3" transform="rotate(-34 20.6 15.6)"/></svg>