<svg xmlns="http://www.w3.org/2000/svg" viewBox="0 0 512 512"><path fill="#3178c6" d="M0 0h512v512H0z"/><path fill="#fff" d="M317 407.4v50c8 4.3 17.7 7.4 28.8 9.5a189 189 0 0 0 69.3-.3c10.8-2.3 20.3-6.1 28.5-11.4 8-5.2 14.5-12.1 19.3-20.6s7.1-19 7.1-31.6c0-9-1.4-17-4-23.8s-6.7-13-11.8-18.2c-5.1-5.4-11.2-10.1-18.4-14.4s-15.2-8.2-24.2-12c-6.5-2.6-12.4-5.3-17.7-7.8a89.8 89.8 0 0 1-13.3-7.8 34.1 34.1 0 0 1-8.4-8.5c-2-3-3-6.3-3-10 0-3.5.9-6.6 2.7-9.4s4.2-5.1 7.5-7.1c3.2-2 7.2-3.5 11.9-4.6a69 69 0 0 1 15.6-1.7 99.3 99.3 0 0 1 53.2 15.7v-46.8c-7.6-3-15.9-5-25-6.5s-19.3-2.1-31-2.1c-11.9 0-23.2 1.3-33.8 3.8s-20 6.6-28 12a59.8 59.8 0 0 0-19.3 20.7c-4.7 8.4-7 18.5-7 30.1 0 15 4.3 27.7 13 38.2a98.2 98.2 0 0 0 39.1 26.8c6.9 2.8 13.3 5.5 19.3 8.3s11 5.5 15.4 8.4c4.3 3 7.7 6.1 10.2 9.5a19.4 19.4 0 0 1 1.4 20.8c-1.5 2.7-3.9 5.1-7 7.2s-7.2 3.6-12 4.7a71.5 71.5 0 0 1-16.6 1.8 95.1 95.1 0 0 1-61.9-22.9zm-84.2-123.3H297V243H118v41h64v183h50.8z"/></svg>