<svg xmlns="http://www.w3.org/2000/svg" viewBox="0 0 200 200"><style>@keyframes A {0%{transform:translate(155px,64px) rotate(0deg);animation-timing-function:cubic-bezier(.4,0,1,1)}23%{transform:translate(155px,64px) rotate(8deg)}43%{transform:translate(155px,64px) rotate(4deg);animation-timing-function:cubic-bezier(0,0,.6,1)}63%{transform:translate(155px,64px) rotate(12deg)}73%{transform:translate(155px,64px) rotate(13deg)}to{transform:translate(155px,64px) rotate(0deg)}}</style><g transform="translate(14 18)"><circle r="82" fill="#F5F5F5" transform="translate(95 82)"/><path stroke="#000" stroke-linecap="round" stroke-width="6" d="M140 34v126"/></g><g style="animation:A 3000ms linear infinite normal forwards" transform="translate(155 64)"><g transform="translate(-140 -45)"><path fill="#80CBC4" stroke="#000" stroke-linejoin="round" stroke-width="5" d="m12 107 89-52s13 10 20 25c3 10 5 20 5 30l-97 35s-11-8-14-16c-4-7-3-22-3-22Z" transform="translate(-10 -18)"/><path stroke="#000" stroke-width="5" d="m114 77 26-32"/><path stroke="#000" stroke-width="5" d="m103 48 38-3"/><path fill="#EE999C" stroke="#000" stroke-width="4" d="M56 135 37 93l14-9 19 46Z" transform="translate(-10 -18)"/><path fill="#EE999C" stroke="#000" stroke-width="4" d="M71 130 51 85l15-9 20 48Z" transform="translate(-10 -18)"/></g></g></svg>